<svg xmlns="http://www.w3.org/2000/svg" xmlns:xlink="http://www.w3.org/1999/xlink" enable-background="new 0 0 512 512" viewBox="0 0 512 512" id="suv"><path fill="#c4c1ab" d="M261,150h-10v-11.5c0-7.7-6.3-14-14-14H122c-7.7,0-14,6.3-14,14V150H98v-11.5
				c0-13.2,10.8-24,24-24h115c13.2,0,24,10.8,24,24V150z"></path><path fill="#68a1d6" d="M477.1,225.3l-93.1-8.8l-66.6-66.4c-7.3-7.2-17.1-11.3-27.4-11.3H65l-26.3,33.8
			c-11.8,15.2-18.2,33.8-18.2,53v75.8H5l6.1,43h487.8L507,323v-64.9C507,241.1,494,226.9,477.1,225.3z"></path><polygon fill="#747e6c" points="311.3 158 368.7 217 384 217 324.7 158"></polygon><rect width="32" height="10" x="128" y="235" fill="#323d2c"></rect><rect width="32" height="10" x="241" y="235" fill="#323d2c"></rect><path fill="#b5100b" d="M28.5,249.8h-8v-24h8c6.6,0,12,5.4,12,12v0C40.5,244.4,35.1,249.8,28.5,249.8z"></path><path fill="#db3328" d="M20.5,249.8L20.5,249.8l0-24h0c6.6,0,12,5.4,12,12v0C32.5,244.4,27.1,249.8,20.5,249.8z"></path><polygon fill="#ebeadf" points="30 344.5 11.1 344.5 5 301.5 30 301.5"></polygon><path fill="#f3e630" d="M471.7,274.9H507v-16.7h-52v0C455,267.4,462.5,274.9,471.7,274.9z"></path><path fill="#fffa5a" d="M490.6,274.9H507v-16.7h-33.1v0C473.9,267.4,481.4,274.9,490.6,274.9z"></path><polygon fill="#3179af" points="507 323 30 323 30 344.5 498.8 344.5"></polygon><path fill="#c4c1ab" d="M495.5,307.6H481l0,0c0-8,6.5-14.5,14.5-14.5l0,0V307.6z"></path><polygon fill="#68a1d6" points="39.4 171.8 65 138.9 39.4 138.9"></polygon><circle cx="92.3" cy="344.5" r="47.9" fill="#323d2c"></circle><path fill="#485143" d="M94.8,296.6c-3.7-0.2-7.3,0-10.8,0.7c-3.9,0.7-3.3,6.3,0.6,6.3c0.2,0,0.5,0,0.7,0
			c26.4,0,47.9,21.6,47.9,47.9c0,0.2,0,0.5,0,0.7c-0.1,3.9,5.6,4.5,6.3,0.6c0.6-3.5,0.8-7.1,0.7-10.8
			C138.9,317.6,119.1,297.9,94.8,296.6z"></path><path fill="#1c2617" d="M112.9,369.4c-24.4-1.2-44.3-21.1-45.5-45.5c0-0.2,0-0.4,0-0.6C67,315,56.1,312,51.6,319.1
			c-4.6,7.4-7.3,16.1-7.3,25.4c0,26.4,21.5,47.9,47.9,47.9c9.3,0,18.1-2.7,25.4-7.3c7.1-4.5,4.1-15.4-4.3-15.7
			C113.2,369.4,113,369.4,112.9,369.4z"></path><circle cx="92.3" cy="344.5" r="22.8" fill="#747e6c"></circle><path fill="#c4c1ab" d="M94,321.8c-1.3-0.1-2.5-0.1-3.8,0c-2.4,0.2-2.4,3.8,0.1,4c0.1,0,0.2,0,0.3,0
			c10.6,1.1,19.2,9.6,20.3,20.3c0,0.1,0,0.2,0,0.3c0.2,2.4,3.8,2.5,4,0.1c0.1-1.2,0.1-2.5,0-3.8C114.1,331.7,105.1,322.7,94,321.8z"></path><path fill="#485143" d="M100.4,356.1c-10.3-1.2-18.5-9.5-19.7-19.7c0-0.1,0-0.2,0-0.3c-0.5-4.6-6.7-5.8-8.8-1.7
			c-1.9,3.8-2.7,8.2-2.2,12.8c1.2,10.3,9.5,18.6,19.8,19.8c4.6,0.5,9-0.3,12.8-2.2c4.2-2.1,3-8.3-1.7-8.8
			C100.6,356.1,100.5,356.1,100.4,356.1z"></path><circle cx="432.3" cy="344.5" r="47.9" fill="#323d2c"></circle><circle cx="432.3" cy="344.5" r="22.8" fill="#747e6c"></circle><path fill="#3179af" d="M160,326.5h-10c0-7.1-3.4-13.9-9-18.2l-19-14.4c-8.1-6.2-13-16-13-26.2v-75.2h10v75.2
				c0,7.1,3.4,13.9,9,18.2l19,14.4C155.1,306.5,160,316.3,160,326.5z"></path><rect width="10" height="121" x="216" y="206" fill="#3179af"></rect><polygon fill="#3179af" points="354 327 344 327 344 214.5 354 214.8"></polygon><path fill="#485143" d="M82.7,157.5L56,198.1l293.4,16.5L306,168.2c-6.4-6.8-15.3-10.7-24.6-10.7H82.7z"></path><defs><path id="a" d="M82.7,157.5L56,198.1l293.4,16.5L306,168.2c-6.4-6.8-15.3-10.7-24.6-10.7H82.7z"></path></defs><clipPath id="b"><use overflow="visible" xlink:href="#a"></use></clipPath><polygon fill="#747e6c" points="208.2 216.5 178.8 216.5 124 150 153.4 150" clip-path="url(#b)"></polygon><polygon fill="#747e6c" points="275.3 216.5 222.9 216.5 168.1 150 220.4 150" clip-path="url(#b)"></polygon><polygon fill="#323d2c" points="228 207.8 228 158 215 158 215 207"></polygon><polygon fill="#323d2c" points="121 201.8 121 158 108 158 108 201"></polygon><path fill="#9ad2fc" d="M56,199H24.9c-1.2,3-2.1,7-2.9,11H56l293,17.8l35,2.3h106.4c-4-3-8.5-4-13.3-4.5l-93.1-8.9
			l-34.5-1.8L56,199z"></path><path fill="#485143" d="M434.8,296.6c-3.7-0.2-7.3,0-10.8,0.7c-3.9,0.7-3.3,6.3,0.6,6.3c0.2,0,0.5,0,0.7,0
			c26.4,0,47.9,21.6,47.9,47.9c0,0.2,0,0.5,0,0.7c-0.1,3.9,5.6,4.5,6.3,0.6c0.6-3.5,0.8-7.1,0.7-10.8
			C478.9,317.6,459.1,297.9,434.8,296.6z"></path><path fill="#1c2617" d="M452.9,369.4c-24.4-1.2-44.3-21.1-45.5-45.5c0-0.2,0-0.4,0-0.6
			c-0.3-8.4-11.3-11.4-15.7-4.3c-4.6,7.4-7.3,16.1-7.3,25.4c0,26.4,21.5,47.9,47.9,47.9c9.3,0,18.1-2.7,25.4-7.3
			c7.1-4.5,4.1-15.4-4.3-15.7C453.2,369.4,453,369.4,452.9,369.4z"></path><path fill="#c4c1ab" d="M434,321.8c-1.3-0.1-2.5-0.1-3.8,0c-2.4,0.2-2.4,3.8,0.1,4c0.1,0,0.2,0,0.3,0
			c10.6,1.1,19.2,9.6,20.3,20.3c0,0.1,0,0.2,0,0.3c0.2,2.4,3.8,2.5,4,0.1c0.1-1.2,0.1-2.5,0-3.8C454.1,331.7,445.1,322.7,434,321.8z
			"></path><path fill="#485143" d="M440.4,356.1c-10.3-1.2-18.5-9.5-19.7-19.7c0-0.1,0-0.2,0-0.3c-0.5-4.6-6.7-5.8-8.8-1.7
			c-1.9,3.8-2.7,8.2-2.2,12.8c1.2,10.3,9.5,18.6,19.8,19.8c4.6,0.5,9-0.3,12.8-2.2c4.2-2.1,3-8.3-1.7-8.8
			C440.6,356.1,440.5,356.1,440.4,356.1z"></path><path fill="#c4c1ab" d="M18,301.5v12c0,5.5-4.5,10-10,10h0l3,21h6.7H30V323v-21.5H18z"></path><path fill="#10121b" d="M92.3,397.5c-29.2,0-52.9-23.8-52.9-52.9s23.8-52.9,52.9-52.9s52.9,23.8,52.9,52.9
				S121.4,397.5,92.3,397.5z M92.3,301.6c-23.7,0-42.9,19.3-42.9,42.9s19.3,42.9,42.9,42.9s42.9-19.3,42.9-42.9
				S115.9,301.6,92.3,301.6z"></path><path fill="#10121b" d="M92.3 372.3c-15.3 0-27.8-12.4-27.8-27.8s12.4-27.8 27.8-27.8 27.8 12.4 27.8 27.8S107.6 372.3 92.3 372.3zM92.3 326.8c-9.8 0-17.8 8-17.8 17.8s8 17.8 17.8 17.8 17.8-8 17.8-17.8S102 326.8 92.3 326.8zM432.3 372.3c-15.3 0-27.8-12.4-27.8-27.8s12.4-27.8 27.8-27.8 27.8 12.4 27.8 27.8S447.6 372.3 432.3 372.3zM432.3 326.8c-9.8 0-17.8 8-17.8 17.8s8 17.8 17.8 17.8 17.8-8 17.8-17.8S442 326.8 432.3 326.8z"></path><path fill="#10121b" d="M432.3 397.5c-29.2 0-52.9-23.8-52.9-52.9s23.8-52.9 52.9-52.9 52.9 23.8 52.9 52.9S461.4 397.5 432.3 397.5zM432.3 301.6c-23.7 0-42.9 19.3-42.9 42.9s19.3 42.9 42.9 42.9 42.9-19.3 42.9-42.9S455.9 301.6 432.3 301.6zM349.5 219.6c-.1 0-.2 0-.3 0l-19.5-1.1.6-10 7 .4-34.9-37.3c-5.4-5.8-13.1-9.1-21-9.1h-196L65 193.6l245.3 13.8-.6 10-254-14.3c-1.8-.1-3.4-1.1-4.2-2.7-.8-1.6-.7-3.5.3-5l26.6-40.6c.9-1.4 2.5-2.3 4.2-2.3h198.7c10.7 0 21 4.5 28.3 12.3l43.5 46.4c1.4 1.5 1.7 3.7.9 5.5C353.2 218.5 351.4 219.6 349.5 219.6z"></path><rect width="32" height="10" x="128" y="235" fill="#10121b"></rect><rect width="32" height="10" x="241" y="235" fill="#10121b"></rect><path fill="#10121b" d="M261 138.5h-10c0-7.7-6.3-14-14-14H122c-7.7 0-14 6.3-14 14H98c0-13.2 10.8-24 24-24h115C250.2 114.5 261 125.3 261 138.5zM228 212.8c-.1 0-.2 0-.3 0l-13-.7c-2.6-.1-4.7-2.3-4.7-5v-49.5c0-2.8 2.2-4.5 5-4.5h13c2.8 0 5 1.8 5 4.5v50.2c0 1.4-.6 2.7-1.6 3.6C230.5 212.3 229.3 212.8 228 212.8zM220 202.3l3 .2V163h-3V202.3zM121 206.8c-.1 0-.2 0-.3 0l-13-.7c-2.6-.1-4.7-2.3-4.7-5v-43.5c0-2.8 2.2-4.5 5-4.5h13c2.8 0 5 1.8 5 4.5v44.2c0 1.4-.6 2.7-1.6 3.6C123.5 206.3 122.3 206.8 121 206.8zM113 196.3l3 .2V163h-3V196.3zM28.5 254.8h-8c-2.8 0-5-2.2-5-5v-24c0-2.8 2.2-5 5-5h8c9.4 0 17 7.6 17 17C45.5 247.1 37.9 254.8 28.5 254.8zM25.5 244.8h3c3.9 0 7-3.2 7-7 0-3.9-3.2-7-7-7h-3V244.8zM30.5 349.5H11.1c-2.5 0-4.6-1.8-5-4.3l-6.1-43c-.2-1.4.2-2.9 1.2-4 1-1.1 2.3-1.7 3.8-1.7h25.5c2.8 0 5 2.2 5 5v43C35.5 347.3 33.3 349.5 30.5 349.5zM15.4 339.5h10.1v-33H10.8L15.4 339.5zM507 279.9h-35.3c-12 0-21.7-9.7-21.7-21.7 0-2.8 2.2-5 5-5h52c2.8 0 5 2.2 5 5v16.7C512 277.6 509.8 279.9 507 279.9zM461.1 263.2c1.9 4 5.9 6.7 10.6 6.7H502v-6.7H461.1z"></path><rect width="254.3" height="10" x="135.1" y="318" fill="#10121b"></rect><rect width="31.9" height="10" x="475.1" y="318" fill="#10121b"></rect><rect width="18.9" height="10" x="30.5" y="318" fill="#10121b"></rect><path fill="#10121b" d="M495.5 312.6H481c-2.8 0-5-2.2-5-5 0-10.7 8.7-19.5 19.5-19.5 2.8 0 5 2.2 5 5v14.5C500.5 310.3 498.3 312.6 495.5 312.6zM487.4 302.6h3.1v-3.1C489.2 300.3 488.2 301.3 487.4 302.6zM39.4 176.8c-.5 0-1.1-.1-1.6-.3-2-.7-3.4-2.6-3.4-4.7v-33c0-2.8 2.2-5 5-5H65c1.9 0 3.7 1.1 4.5 2.8s.6 3.8-.5 5.3l-25.6 33C42.3 176.2 40.9 176.8 39.4 176.8zM44.4 143.9v13.4l10.4-13.4H44.4z"></path><path fill="#10121b" d="M498.8,349.5h-18.6v-10h15.2l6.6-17.4v-64c0-14.5-10.9-26.5-25.4-27.9l-93.1-8.8
				c-1.2-0.1-2.2-0.6-3.1-1.4l-66.6-66.4c-6.4-6.3-14.8-9.8-23.8-9.8H67.4l-24.8,31.9c-11.1,14.2-17.1,32-17.1,50v75.8
				c0,2.8-2.2,5-5,5h-9.7l4.7,33h28.9v10H11.1c-2.5,0-4.6-1.8-5-4.3l-6.1-43c-0.2-1.4,0.2-2.9,1.2-4c1-1.1,2.3-1.7,3.8-1.7h10.5
				v-70.8c0-20.2,6.8-40.1,19.2-56.1l26.3-33.8c0.9-1.2,2.4-1.9,3.9-1.9h225c11.7,0,22.6,4.5,30.9,12.8l65.4,65.1l91.3,8.6
				c19.6,1.8,34.4,18.1,34.4,37.8V323c0,0.6-0.1,1.2-0.3,1.8l-8.2,21.5C502.8,348.2,500.9,349.5,498.8,349.5z"></path><rect width="190.3" height="10" x="194" y="339.5" fill="#10121b"></rect><rect width="33.8" height="10" x="140.2" y="339.5" fill="#10121b"></rect></svg>